<svg width="0" height="0" class="hidden">
  <symbol xmlns="http://www.w3.org/2000/svg" viewBox="0 0 24 24" id="apps">
    <path d="M6 8c1.1 0 2-.9 2-2s-.9-2-2-2-2 .9-2 2 .9 2 2 2zm6 12c1.1 0 2-.9 2-2s-.9-2-2-2-2 .9-2 2 .9 2 2 2zm-6 0c1.1 0 2-.9 2-2s-.9-2-2-2-2 .9-2 2 .9 2 2 2zm0-6c1.1 0 2-.9 2-2s-.9-2-2-2-2 .9-2 2 .9 2 2 2zm6 0c1.1 0 2-.9 2-2s-.9-2-2-2-2 .9-2 2 .9 2 2 2zm4-8c0 1.1.9 2 2 2s2-.9 2-2-.9-2-2-2-2 .9-2 2zm-4 2c1.1 0 2-.9 2-2s-.9-2-2-2-2 .9-2 2 .9 2 2 2zm6 6c1.1 0 2-.9 2-2s-.9-2-2-2-2 .9-2 2 .9 2 2 2zm0 6c1.1 0 2-.9 2-2s-.9-2-2-2-2 .9-2 2 .9 2 2 2z"></path>
  </symbol>
  <symbol xmlns="http://www.w3.org/2000/svg" viewBox="0 0 24 24" id="microphone">
    <path d="M12 15c1.66 0 3-1.31 3-2.97V5.01C15 3.35 13.66 2 12 2S9 3.34 9 5.01v7.02C9 13.69 10.34 15 12 15z" fill="#4285f4"></path>
    <path d="M11 18.08h2V22h-2z" fill="#34a853"></path>
    <path d="M7.05 16.87C5.78 15.54 5 14.04 5 12h2c0 1.45.56 2.42 1.47 3.38v.32l-1.15 1.18z" fill="#f4b400"></path>
    <path d="M12 16.93a4.97 5.25 0 01-3.54-1.55l-1.41 1.49A6.751 6.751 0 0012 19c3.87 0 6.99-2.92 6.99-7H17c0 2.92-2.24 4.93-5 4.93z" fill="#ea4335"></path>
  </symbol>
  <symbol xmlns="http://www.w3.org/2000/svg" viewBox="0 0 24 24" id="search">
    <path d="M15.5 14h-.79l-.28-.27A6.471 6.471 0 0016 9.5 6.5 6.5 0 109.5 16c1.61 0 3.09-.59 4.23-1.57l.27.28v.79l5 4.99L20.49 19l-4.99-5zm-6 0C7.01 14 5 11.99 5 9.5S7.01 5 9.5 5 14 7.01 14 9.5 11.99 14 9.5 14z"></path>
  </symbol>
</svg>